<svg width="32" height="32" viewBox="0 0 32 32" fill="none" xmlns="http://www.w3.org/2000/svg">
<g filter="url(#filter0_d)">
<path d="M27.625 12.0001C27.625 5.57825 22.4219 0.375122 16 0.375122C9.57812 0.375122 4.375 5.57825 4.375 12.0001C4.375 17.8126 8.59375 22.6407 14.1719 23.4845V15.3751H11.2188V12.0001H14.1719V9.46887C14.1719 6.56262 15.9062 4.922 18.5312 4.922C19.8438 4.922 21.1562 5.15637 21.1562 5.15637V8.01575H19.7031C18.25 8.01575 17.7812 8.90637 17.7812 9.84387V12.0001H21.0156L20.5 15.3751H17.7812V23.4845C23.3594 22.6407 27.625 17.8126 27.625 12.0001Z" fill="#FFCB47"/>
</g>
<defs>
<filter id="filter0_d" x="0.375" y="0.375122" width="31.25" height="31.1094" filterUnits="userSpaceOnUse" color-interpolation-filters="sRGB">
<feFlood flood-opacity="0" result="BackgroundImageFix"/>
<feColorMatrix in="SourceAlpha" type="matrix" values="0 0 0 0 0 0 0 0 0 0 0 0 0 0 0 0 0 0 127 0"/>
<feOffset dy="4"/>
<feGaussianBlur stdDeviation="2"/>
<feColorMatrix type="matrix" values="0 0 0 0 0 0 0 0 0 0 0 0 0 0 0 0 0 0 0.25 0"/>
<feBlend mode="normal" in2="BackgroundImageFix" result="effect1_dropShadow"/>
<feBlend mode="normal" in="SourceGraphic" in2="effect1_dropShadow" result="shape"/>
</filter>
</defs>
</svg>
